<svg xmlns="http://www.w3.org/2000/svg" width="2500" height="2500" viewBox="0 0 192.672 192.672"><path fill="#fff" d="M0 0h192.672v192.672H0z"/><g fill="#ad3652"><path d="M36.576 98.712H22.68v-1.08c0 .576 3.816-.864 4.248-1.152 1.512-1.152 1.44-3.24 1.44-4.968V72.288v-8.28c0-3.384-2.88-4.392-5.688-4.392v-1.08h14.184s18.144 23.04 18.432 23.4c-.216-.216 0-1.656 0-2.016 0-1.584.072-3.168 0-4.752 0-3.024 0-6.048.072-9 0-3.24 0-5.976-3.816-6.48-.072 0-2.016-.144-2.016-.072v-1.08h14.4v1.08c0-.216-2.952.216-3.312.288-2.448.864-2.592 3.744-2.592 5.904.072 3.744.144 7.416.144 11.16v22.32h-.864L31.248 66.672v24.84c0 3.6 1.512 6.12 5.328 6.12v1.08zM79.272 136.656v-.576-8.496-13.968c0-2.088.576-5.256-.576-7.128-.576-.792-1.512-1.152-2.376-1.296-.216-.072-2.448-.288-2.448-.216v-1.008h9.72c4.032 0 8.064-.072 12.096.072 3.816.144 7.632.792 10.224 4.032 2.808 3.456 3.312 8.568.504 12.168-1.656 2.088-4.032 3.888-6.552 4.68.36-.072 4.104 5.832 4.464 6.408 1.584 2.376 3.096 4.824 4.608 7.272 1.08 1.8 2.592 4.176 5.04 4.176v1.08H101.88c-3.024-4.608-5.904-9.216-8.928-13.824-1.152-1.8-2.448-4.392-4.896-4.392 0 4.32-.36 8.856.072 13.176.288 2.304 1.224 3.6 3.6 3.888l.864.072h.864v1.08H73.872c0-1.296.36-1.008 1.584-1.152 1.008-.072 2.088-.216 2.88-1.008 1.152-1.224.936-3.384.936-5.04zm8.784-30.528v17.28c3.744 0 7.488-.144 9.576-3.672 1.944-3.24 2.16-7.992-.504-10.944-1.44-1.728-3.816-2.664-6.12-2.664h-2.952z"/><path d="M171.936 43.776c-.144-.432-.216-1.008-.504-1.296-.864-.792-1.152-1.8-2.232-2.52-.72-.432-1.584-.576-2.016-1.44-.864-1.656-.072-3.024-2.088-4.176-.648-.36-1.512-.432-1.944-1.08s-.216-1.584-.648-2.232c-.864-1.224-2.52-2.016-3.528-3.024-.864-.792-.864-2.16-1.656-2.952-1.008-1.008-3.096-.432-4.392-.504-.216-1.584-2.448-2.088-3.672-2.376-1.368-.288-1.944-1.584-3.168-2.304-1.296-.72-2.664-.432-4.032-.432-2.52-.072-5.976-.648-6.336-3.744.864-.36 1.08-1.008 1.728-1.656.576-.576 1.008-.648 1.224-1.512.216-.72 0-1.512.144-2.232.288-1.584 1.44-2.664 2.88-3.384-1.224-2.592-4.608-1.152-6.696-2.448-.864-.576-1.584-1.08-2.736-1.008-1.152.144-2.016.576-3.24.432-1.224-.072-1.656-.72-2.736-1.008-1.008-.216-2.448.144-3.24.648-.072 0 0 .072 0 .072-1.584 1.44-2.664.936-4.32.072-1.368-.792-2.88-.792-4.248 0-1.224.792-2.376 1.44-3.888 1.008-1.512-.432-2.808-1.008-4.248-.144-.648.36-1.008.936-1.656 1.152-1.368.36-3.168.072-4.608.216-1.656.216-3.312.504-4.824 1.08-3.456 1.296-6.12 3.384-8.136 6.48-4.176 6.624-1.44 15.264-3.24 22.464-1.224 5.04-4.824 10.224-10.44 10.44-3.888.144-6.984-2.448-9.288-5.328-2.736-3.312-5.184-6.84-7.416-10.512-1.656-2.88-3.456-6.12-4.104-9.432l-.216-1.008-6.48 6.552L75.24 58.536H64.728v1.08c0-.072 2.376.144 2.592.144.936.216 1.944.504 2.52 1.368 1.872 2.736 1.368 5.976 1.368 9.072-.072 4.248-.216 19.656-.792 24.336-.36 2.664-3.312 3.168-5.616 3.096 0 .144-.072 1.08-.072 1.08h32.688l1.872-13.104h-1.08c-.144 0-1.512 3.456-1.656 3.744-.792 1.944-2.088 3.456-3.888 4.608-3.6 2.376-12.888 3.744-12.888-2.736V79.128c1.224.072 2.376.216 3.528.576 3.744 1.296 4.968 4.968 5.256 8.568h1.08v-14.04l27.288 29.736h-6.768c0 .36 0 .72.072 1.08 3.96-.072 4.536 5.04 5.76 7.776 2.736 6.192 4.896 12.6 7.488 18.792 1.8 4.392 3.528 8.784 5.256 13.176h1.296l7.632-18.288 27.288 29.736v-.504c.072-1.368-.072-2.664-.216-4.032-.144-2.232.432-4.464.36-6.696-.072-2.232-1.152-3.888-1.728-5.976-.216-1.152.072-2.232.432-3.312.72-2.016.288-3.816.072-5.904-.288-2.088 1.8-3.24 1.44-5.472-.144-1.08-.72-1.728-.648-2.808.072-1.008.216-1.872-.072-2.952-.288-1.008-.864-2.016-.864-3.024-.072-1.296.432-2.376 0-3.672-.504-1.512-.72-2.376-.432-3.888.36-1.872.864-4.464-.648-5.976-.792-.936-1.368-1.008-1.584-2.376-.144-1.008-.144-2.016-.216-3.024-.072-1.008-.216-2.016-.648-2.952-.432-.792-1.224-1.512-1.656-2.304-.72-1.656.216-3.528-.288-5.256-.288-.864-.864-1.584-1.152-2.448-.288-.864-.432-1.8-.864-2.664-.72-1.368-2.016-1.656-1.8-3.456.216-1.296.792-2.16-.144-3.384-.864-1.08-1.944-1.44-2.448-2.736-.504-1.368-.648-2.232-1.944-3.024-.936-.72-2.016-1.512-3.168-1.656-1.368-.144-2.664.36-3.528-.936-.648-1.008-.576-2.16-1.944-2.592-1.152-.288-2.592.288-3.528-.576-.792-.72-1.152-1.728-1.872-2.52-.36-.432-1.368-1.008-.432-1.584 1.008-.576 2.808 1.296 3.888 1.584 1.368.36 3.168.576 4.608.72 3.096.216 5.472-2.232 8.496-2.16 1.44.072 2.952.576 4.32.072 1.296-.576 1.8-2.376 3.24-2.664 1.584-.216 2.736.936 4.032-.648.936-1.152 1.08-2.592 2.304-3.528 1.44-1.08 3.096-.864 4.608-1.584 1.224-.648 1.872-2.304 2.736-3.384-.72-1.008-1.224-2.088-1.728-3.168zm-92.16 32.976V74.88v-7.488c0-1.08-.144-2.592.144-3.816l7.776 8.496c-1.368 3.312-4.536 4.392-7.92 4.68zm56.016 47.736a388.457 388.457 0 0 1-2.808 6.768c.144-.36-.864-2.16-1.008-2.52-1.44-3.816-2.952-7.56-4.464-11.304-.432-1.152-.936-2.304-1.368-3.456l9.648 10.512zM23.76 141.192l-.072-.144c.216-.216.36-.432.504-.648.36-.864-.288-1.584-1.152-1.656-1.296-.144-2.88.792-3.456 1.872a1.15 1.15 0 0 0 .504 1.656c.432.216 1.296 0 1.44-.504v-.072-.072l.216-.144.36.792-1.8.864c-.72-.648-1.44-1.44-1.224-2.448.072-.72.648-1.296 1.224-1.656a4.59 4.59 0 0 1 1.008-.576c.72-.216 1.584-.36 2.304 0 .648.36 1.008.936 1.008 1.656 0 .144 0 .432.216.432l.072.144-1.152.504zM26.064 143.136s0 .072.072.072v.072c.144.288.072.648-.144 1.152-.288.432-.792.864-1.512 1.224-.792.432-1.368.576-1.872.576-.504-.072-.864-.216-1.08-.504v-.072c-.072 0-.072 0-.072-.072v-.072c-.144-.36-.072-.72.144-1.152.216-.432.72-.864 1.44-1.296.792-.432 1.44-.576 1.944-.504s.864.216 1.008.504h.072v.072zm.288-.144c-.288-.504-.792-.864-1.44-.864a3.545 3.545 0 0 0-2.088.432c-.72.36-1.224.864-1.584 1.44-.288.648-.36 1.224-.072 1.728.288.576.792.864 1.512.936.72.072 1.368-.072 2.088-.432.648-.432 1.152-.864 1.512-1.512.36-.576.36-1.152.072-1.728zM23.328 148.824l4.32-2.664.432.648.144.288c.072.144.072.36.072.576 0 .288-.144.576-.36.936-.144.288-.576.648-1.152 1.008s-1.08.576-1.512.576c-.432 0-.72-.072-.936-.216-.216-.072-.288-.144-.36-.288-.144-.072-.216-.144-.216-.216l-.432-.648zm4.176-3.528l-.216.144c.072.072 0 .216-.072.288-.072.144-.144.216-.288.36l-3.312 1.944c-.144.144-.288.216-.432.216s-.216 0-.288-.144l-.288.144.936 1.44c0 .144.144.216.216.36.144.144.288.288.504.432.288.144.72.216 1.152.216.432 0 1.008-.144 1.656-.576.72-.432 1.224-.864 1.368-1.368.216-.504.288-.936.216-1.368 0-.144-.072-.216-.072-.36a.546.546 0 0 1-.144-.288l-.936-1.44zM28.728 150.336l-.144-.216 1.296-1.008.288.432zM30.744 152.928l-.144-.144c.144-.216.288-.36.36-.504.072-.144.144-.288.144-.36.072-.216.072-.36.072-.432-.072-.144-.072-.216-.144-.288-.144-.144-.288-.288-.504-.216-.216 0-.432.072-.648.216-.216.144-.36.288-.36.504-.072.144-.072.288-.072.504v.144c.072.072.072.144.072.216 0 .072 0 .144.072.216v.36c0 .216 0 .432-.144.72-.072.288-.288.504-.648.72l-.072.072c-.36.216-.72.36-1.152.36s-.72-.144-.936-.432c0 0-.072-.144-.144-.216 0-.144-.072-.288-.072-.432-.072 0-.072-.072-.072-.072v-.072-.072l-.072-.072v-.072c-.072 0-.072-.072-.144-.072h-.144l-.144-.144 1.44-1.008.144.144c-.288.36-.504.648-.576 1.008-.144.36-.072.72.072.936.144.216.36.288.576.288.288 0 .504-.072.72-.216l.072-.072c.216-.144.432-.36.504-.576.072-.216.072-.36.072-.576 0-.072 0-.144-.072-.216v-.216c-.072-.072-.072-.144-.072-.216v-.216c-.072-.216 0-.432.072-.72.144-.216.36-.504.648-.72.36-.216.648-.36 1.008-.36s.648.144.864.504c.072 0 .072 0 .072.072 0 0 .072 0 .072.072s0 .144.072.216v.576H31.752l.072.144-1.08.72zM34.56 155.88c-.144-.144-.216-.144-.36-.072-.144 0-.288.072-.432.216l-2.952 2.376c-.144.144-.216.216-.288.36-.072.144-.072.216 0 .36l-.216.144-.792-.936.216-.144c.144.072.216.144.36.072.144 0 .288-.072.432-.216l2.952-2.448c.144-.072.288-.216.288-.36a.219.219 0 0 0 0-.288l.216-.216.792.936-.216.216zM31.032 159.768c.072.072.216.144.288.072.144-.072.288-.144.36-.216l2.952-2.592c.144-.072.216-.216.288-.36.072-.144.072-.216 0-.36l.216-.144.504.648-1.656 4.752 2.592-2.304c.072 0 .072-.072.144-.072 0 0 0-.072.072-.072.072-.072.072-.144.144-.216 0-.144 0-.216-.072-.288l.216-.216.576.72-.216.144c-.072-.072-.216-.072-.36-.072-.072.072-.216.144-.288.216l-3.672 3.168-.072-.072 1.872-5.4-3.096 2.664c0 .072 0 .072-.072.072 0 .072-.072.072-.072.144-.072.072-.072.144-.072.216-.072.072-.072.144 0 .216l-.216.216-.576-.72.216-.144zM40.104 162c-.072-.072-.216-.144-.288-.072a1.506 1.506 0 0 0-.432.288l-1.152 1.224 1.656 1.656 1.224-1.224c.144-.144.216-.288.288-.432 0-.072 0-.216-.072-.288l.216-.216.792.864-.144.144c-.072-.072-.216-.072-.288-.072-.072.072-.144.072-.216.144-.072 0-.072.072-.144.072 0 .072-.072.072-.072.144l-2.664 2.736c-.144.144-.216.288-.288.36-.072.144 0 .288.072.36l-.216.216-.864-.864.216-.216c.144.072.216.144.36.072.072-.072.216-.144.36-.288l1.224-1.296-1.656-1.656-1.296 1.296c-.144.144-.216.288-.216.432a.219.219 0 0 0 0 .288l-.144.216-.864-.792.216-.216c.072.072.216.072.288.072.144-.072.216-.144.36-.288l2.664-2.808c.144-.144.288-.216.288-.36.072-.144.072-.216-.072-.36l.216-.144.864.792-.216.216zM43.488 165.096a.219.219 0 0 0-.288 0c-.144.072-.288.216-.36.288l-2.592 2.88c-.072.144-.216.288-.216.36-.072.144 0 .288.072.36l-.216.216-.864-.792.144-.216c.144.072.288.072.36.072.144-.072.216-.216.36-.288l2.592-2.88.216-.432c.072-.144 0-.216-.072-.288l.216-.216.864.792-.216.144zM45.072 168.048l-.144-.144c.072-.216.144-.432.144-.576.072-.144.072-.288.072-.36 0-.216 0-.36-.072-.504-.072-.072-.072-.144-.144-.144-.216-.144-.36-.216-.576-.144-.216.072-.432.144-.576.36s-.288.36-.288.576c0 .216.072.36.144.504 0 .072.072.144.072.216 0 .072.072.072.072.144.072.072.072.144.144.216 0 .072.072.216.072.288.072.216.072.504.072.792a3.206 3.206 0 0 1-.432.864s-.072 0-.072.072c-.288.288-.648.504-1.008.648s-.72.072-1.008-.144c-.072-.072-.072-.144-.216-.216-.072-.072-.144-.216-.216-.36v-.072l-.072-.072c0-.072 0-.072-.072-.072v-.072h-.072v-.072h-.144s-.072 0-.144.072l-.144-.144 1.152-1.368.144.144c-.216.36-.288.792-.288 1.152 0 .36.072.648.288.792v.072h.072c.144.144.36.144.576.072.288-.072.504-.216.648-.432h.072c.144-.216.288-.504.288-.72s0-.36-.072-.576c-.072-.072-.072-.144-.072-.216l-.144-.144c0-.072-.072-.144-.072-.216-.072-.072-.072-.144-.072-.216-.072-.216-.144-.432-.072-.72 0-.288.144-.576.432-.864.216-.288.504-.504.864-.576.36-.144.648-.072.936.216.072 0 .072 0 .072.072.072 0 .072 0 .072.072.072 0 .144.072.144.216.072.072.072.144.072.288v.072h.072v.144H45.792l.144.072-.864 1.008zM49.464 169.848c-.144-.072-.216-.072-.36 0a1.57 1.57 0 0 0-.288.36l-1.008 1.368 1.944 1.368.936-1.44c.144-.144.216-.288.216-.36.072-.144 0-.216-.072-.36l.144-.216 1.008.72-.216.216c-.072-.072-.144-.072-.216-.072a1.036 1.036 0 0 1-.216.144l-.144.144c0 .072-.072.072-.072.072l-2.232 3.168c-.072.144-.144.288-.144.432-.072.144 0 .216.072.36l-.144.216-1.008-.72.216-.216a.219.219 0 0 0 .288 0c.144-.072.216-.216.36-.36l1.008-1.44-1.872-1.368-1.08 1.44c-.072.216-.144.36-.216.432 0 .144 0 .288.144.36l-.216.216-.936-.72.144-.216c.144.072.216.072.36 0 .072-.072.216-.144.288-.288l2.232-3.168c.144-.144.216-.288.216-.432 0-.144 0-.216-.144-.288l.216-.288.936.72-.144.216zM54.36 172.8c.072 0 .072 0 .144.072 0 0 .072 0 .144.072h.072c.072 0 .072.072.072.072h.144c0 .072.072.072.072.072l-.576.936-.144-.072c.144-.288.144-.504.072-.648-.144-.216-.288-.36-.504-.432l-.864-.576-1.224 1.944.576.432h.072l.072.072h.216c.072 0 .216-.072.288-.216l.216.072-.72 1.08-.144-.144c.072-.216.144-.36.072-.432 0-.072-.072-.072-.216-.216l-.648-.36-1.224 2.088 1.008.648c.216.144.432.216.72.216.216 0 .432-.144.648-.432l.216.072-.72 1.008-2.808-1.728.144-.216c.144.072.216.072.36 0a1.57 1.57 0 0 0 .288-.36l2.016-3.312c.144-.144.216-.288.216-.432 0-.072 0-.216-.144-.288l.144-.216 1.944 1.224zM56.016 178.128l-1.584-.864 2.088-1.944.072.072-.576 2.736zm1.296-3.744l-.072-.072c0 .072 0 .072-.072.072h-.144c0 .072-.072.072-.144.072h-.144l-.144.216c0 .072 0 .072.072.072v.144c-.072 0-.072 0-.072.072 0 0-.072 0-.144.072l-3.024 2.808c0 .072-.072.072-.144.144 0 0-.072 0-.144.072 0 .072-.144.072-.216.144-.072 0-.144 0-.216-.072l-.144.288.792.432.144-.216c-.072-.072-.072-.144-.072-.216v-.144s0-.072.072-.072v-.072c.072 0 .072-.072.144-.144l.576-.504 1.728 1.008-.144.72V179.424s-.072 0-.072.072-.072.072-.072.144c-.072 0-.144.072-.216 0l-.144.288 1.008.504.072-.216c-.072-.072-.072-.144-.072-.288-.072-.144 0-.288 0-.432l1.008-5.112zM60.12 175.968l-.072.216h-.288c-.072.072-.144.072-.144.216v.072c-.072 0-.072.072-.072.072V176.76l-.504 3.96 2.736-2.808c.072 0 .072 0 .072-.072h.072v-.072c.072 0 .072 0 .072-.072h.072v-.072a.544.544 0 0 0 .072-.288l-.144-.144-.072-.072.144-.216.864.432-.072.216c-.144 0-.288 0-.36.072-.144.072-.216.144-.36.288 0 0 0 .072-.072.072l-3.6 3.6-.144-.072.72-5.256v-.072-.144-.216c-.072-.072-.072-.144-.144-.144l.144-.288 1.08.576zM65.304 178.344h.144c.072.072.072.072.144.072h.072l.072.072h.144c.072 0 .072 0 .144.072l-.432 1.008-.216-.072c.072-.36.072-.576-.072-.648a.737.737 0 0 0-.432-.36l-1.008-.432-.936 2.16.72.288h.072c.072.072.144.072.288 0 .072 0 .144-.072.216-.288l.216.144-.504 1.08-.216-.072c.072-.216.072-.36 0-.432 0-.072-.072-.072-.216-.144l-.648-.288-1.008 2.232 1.152.432c.216.144.504.216.72.144.288 0 .504-.144.648-.504l.144.072-.504 1.08-3.024-1.224.072-.288c.144 0 .288 0 .36-.072.072-.072.144-.216.216-.432l1.512-3.528c.072-.144.144-.36.144-.432 0-.144-.072-.216-.216-.288l.144-.288 2.088.936zM64.8 184.032h.072c.072 0 .144 0 .288-.072l.216-.432 1.296-3.6c.072-.216.072-.36.072-.504 0-.144-.072-.216-.144-.288l.072-.288.792.288.792 4.968h.072l1.152-3.24v-.072c.072-.072.072-.072.072-.144v-.288c0-.072-.072-.144-.144-.216l.072-.288.864.36-.144.216c-.144 0-.216.072-.288.144-.072.072-.144.216-.216.36l-1.656 4.536-.144-.072-.936-5.616-1.368 3.888s-.072 0-.072.072V184.176c0 .072.072.144.144.144l-.072.288-.864-.36.072-.216zM69.048 186.84v-.216c.144-.072.288-.216.432-.288.072-.144.072-.216.144-.288h-.072l-.216-.216c0-.072 0-.216.072-.36v-.072c.072-.072.072-.144.144-.144.072-.072.144-.072.288-.072l.072.072c.072 0 .072.072.144.144 0 .144 0 .288-.072.432-.072.216-.144.432-.36.576-.144.216-.288.288-.432.432h-.072-.072zM74.16 185.328l-1.728-.504 1.584-2.376v.072l.144 2.808zm.36-3.96l-.072-.072-.072.072c-.072 0-.072.072-.144.072l-.072.072h-.144c0 .072-.072.072-.072.072l-.072.216c0 .072.072.072.072.072v.144c0 .072-.072.072-.072.144l-2.304 3.528s-.072 0-.072.072l-.144.144c-.072.072-.144.144-.216.144-.072.072-.072.072-.144.072l-.072.288.864.216.072-.288a.155.155 0 0 1-.144-.144s-.072-.072-.072-.144h.072v-.072-.072c0-.072.072-.072.144-.144l.36-.648 1.944.504.072.792V186.624c-.072.144-.072.216-.144.216 0 .072-.072.072-.144.072l-.072.288 1.08.288.072-.288c-.072 0-.144-.072-.216-.216 0-.144-.072-.288-.072-.504l-.216-5.112zM77.76 182.52a.546.546 0 0 0-.288.144c-.072.072-.144.216-.144.432l-.936 4.392 1.224.216a.56.56 0 0 0 .576-.144c.216-.144.36-.36.432-.648h.216l-.288 1.368-3.096-.72.072-.216c.144 0 .216-.072.288-.144l.216-.432.792-3.744c.072-.216.072-.36 0-.504 0-.144-.072-.216-.216-.216l.072-.288 1.152.216-.072.288zM81.288 183.24c-.144 0-.216 0-.288.144-.072.072-.144.216-.144.432l-.792 4.392 1.296.216c.216.072.432 0 .576-.216.144-.144.288-.36.432-.648h.144l-.216 1.368-3.096-.576.072-.216a.546.546 0 0 0 .288-.144c.072-.144.144-.288.144-.504l.648-3.744v-.504c0-.072-.072-.216-.216-.216v-.288l1.224.216-.072.288zM83.88 185.04l-.144-.072.072-1.656.504.072zM87.264 185.256h-.216c-.072-.288-.072-.432-.144-.576l-.216-.432c-.072-.144-.144-.288-.288-.288-.144-.072-.216-.072-.216-.072-.288-.072-.432 0-.576.216-.144.144-.216.36-.288.576 0 .288 0 .504.144.648a.868.868 0 0 0 .36.36l.144.144c.072 0 .144.072.144.072.072.072.144.072.288.144.072.072.144.072.216.144.144.144.36.36.432.648.144.216.216.576.144.936v.144c-.072.432-.216.792-.504 1.08a1.125 1.125 0 0 1-.864.432c-.072-.072-.216-.072-.288-.072l-.432-.216h-.072l-.072-.072h-.072c-.072 0-.072-.072-.072-.072h-.072c-.072 0-.072.072-.144.072 0 0-.072.072-.072.144h-.216l.216-1.8h.216c0 .432.144.864.36 1.152.216.288.432.504.72.504h.072c.216.072.36-.072.576-.216.144-.216.216-.432.288-.72v-.072c0-.288 0-.504-.144-.72a.737.737 0 0 0-.36-.432c-.072-.072-.144-.072-.216-.144-.072-.072-.072-.072-.144-.072-.072-.072-.144-.072-.216-.144-.072 0-.144-.072-.216-.144a1.988 1.988 0 0 1-.432-.576c-.144-.216-.144-.504-.144-.936.072-.36.216-.72.432-1.008.216-.216.576-.36.936-.288h.144c.144 0 .216.072.288.144.072 0 .144.072.216.216h.072s0 .072.072.072h.072c.072 0 .072 0 .072-.072H87.408l-.144 1.296zM91.512 186.768l.072-2.376H92.376c.072 0 .144 0 .216.072.216 0 .36.144.432.288.144.144.216.432.216.864 0 .36-.072.576-.216.792a1.506 1.506 0 0 1-.432.288c-.072.072-.144.072-.288.072H91.512zm-.792-2.736v.288c.072 0 .144 0 .216.072 0 0 .072.072.072.144v.072s0 .072.072.072v.288l-.144 3.816c0 .216 0 .36-.072.432-.072.144-.144.216-.288.216v.288l1.152.072v-.288c-.072-.072-.216-.144-.216-.216-.072-.144-.072-.288-.072-.432l.072-1.8.864.072 1.08 2.664.72.072v-.288c-.072 0-.144-.072-.216-.144-.072-.072-.144-.144-.144-.288-.072 0-.072-.072-.072-.072V189l-.792-2.016h.144l.504-.504c.144-.216.216-.504.216-.936 0-.576-.144-.936-.432-1.152s-.648-.288-1.08-.36H90.72zM95.904 184.392c-.144 0-.216.072-.288.216s-.072.288-.072.432v3.816c0 .216.072.36.144.504 0 .072.072.144.216.144v.288h-1.152v-.216a.994.994 0 0 0 .288-.216c0-.144.072-.288.072-.504l-.072-3.816c0-.216 0-.36-.072-.432-.072-.144-.144-.216-.288-.216v-.288h1.224v.288zM99.864 185.328l-.216.072c-.072-.36-.216-.576-.36-.72s-.288-.288-.432-.288c-.072-.072-.216-.072-.288-.144h-.216c-.072 0-.144 0-.216.072h-.144c-.288.144-.504.432-.72.792-.216.36-.288.936-.216 1.728v.504c.072.216.072.36.144.576.072.432.288.792.504 1.08.216.36.576.504 1.08.504.288-.072.504-.144.72-.36.216-.216.288-.504.288-.864-.072-.216-.072-.36-.144-.432 0-.144-.072-.144-.144-.216h-.072-.072v-.288l.864-.072.072 2.016c-.216.144-.432.216-.648.288-.144.072-.288.144-.504.144-.072 0-.072.072-.144.072h-.216c-.36 0-.576 0-.792-.072-.216-.144-.432-.216-.576-.288-.072-.072-.144-.144-.144-.216a.155.155 0 0 1-.144-.144c-.216-.216-.36-.576-.504-.936-.072-.432-.144-.864-.144-1.296v-.72c.072-.288.072-.432.144-.648.072-.144.072-.216.144-.288 0-.144.072-.144.072-.216.144-.288.36-.576.648-.72.216-.144.504-.288.792-.288h.504c.144.072.216.072.288.144h.072l.072.072h.072c.072 0 .072 0 .144.072h.072v-.072h.072l.072-.072h.144l.072 1.224zM101.736 184.032c-.144.072-.216.144-.216.288-.072.072-.072.288-.072.432l.216 1.728 2.304-.288-.144-1.656c-.072-.216-.072-.36-.144-.432-.072-.144-.144-.216-.288-.216v-.288l1.152-.072.072.288c-.144 0-.216.072-.216.144-.072.072-.072.144-.072.216-.072.072-.072.144-.072.144a.223.223 0 0 1 .072.144l.36 3.816c0 .216.072.36.144.504 0 .072.144.144.288.144v.288l-1.152.072-.072-.216a.562.562 0 0 0 .288-.288v-.432l-.144-1.8-2.376.216.216 1.8c0 .216 0 .36.072.504.072.072.144.144.288.144l.072.288-1.224.072v-.216c.144-.072.216-.144.216-.288.072-.072.072-.216.072-.432l-.432-3.816c0-.216 0-.36-.072-.504-.072-.072-.144-.144-.288-.144l-.072-.288 1.224-.072v.216zM104.904 183.384l1.368-.144 1.152-.144 1.224-.288.144 1.08-.216.072V183.744c-.072-.144-.144-.216-.288-.36-.072-.072-.216-.072-.432-.072l-.792.144.72 4.392c0 .216.072.36.072.432.072.144.216.144.36.144v.288l-1.152.216-.072-.288a.994.994 0 0 0 .288-.216v-.504l-.72-4.392-.792.144c-.216 0-.36.072-.432.288-.072.144-.072.288-.072.504h-.216l-.144-1.08zM113.04 183.744h-.072l-.432-.792v-.072h-.072v-.144c-.072 0-.072-.072-.072-.072 0-.144 0-.216.072-.288.072 0 .144-.072.216-.072l.144-.072h.072s.072 0 .072.072c.072 0 .072.072.144.144v.288l-.072 1.008zm2.232-2.376l-.936.288.072.216c.072 0 .144 0 .216.072.072.072.072.144.144.216v.504l-.216 3.744-1.296-2.232.072-1.296v-.072-.072c0-.216.072-.36.144-.432 0-.144.072-.216.144-.216l-.072-.288-2.16.504.072.288c.072 0 .216 0 .288.072a.994.994 0 0 1 .216.288l1.008 1.8-.144 2.016-1.944-3.312c0-.144-.072-.216-.072-.216-.072-.072-.072-.144-.072-.144v-.216c.072-.072.072-.144.144-.144 0 0 .072 0 .072-.072l-.072-.216-1.224.288v.288c.144-.072.288 0 .36.072.072.072.216.144.216.288h.072v.072l2.52 4.464.216-.072.144-2.664 1.368 2.376.144-.072.36-5.04c0-.288.072-.576.144-.648.072-.072.072-.144.144-.144l-.072-.288zM116.712 181.224c-.144.072-.216.144-.216.288s0 .288.072.432l1.08 3.744a.55.55 0 0 0 .144.36c.072.144.216.144.36.144l.072.288-1.152.288-.072-.216c.144-.072.216-.216.216-.288 0-.144 0-.288-.072-.504l-1.08-3.672c0-.216-.072-.288-.216-.432-.072-.072-.144-.144-.288-.072l-.072-.288 1.152-.36.072.288zM117 180.792l1.368-.36 1.08-.36 1.152-.432.36 1.008-.216.072s0-.072-.072-.072v-.072a.562.562 0 0 0-.288-.288c-.144-.072-.288-.072-.432-.072l-.792.288 1.368 4.248c.072.216.144.36.216.432.072.072.216.144.288.072l.144.288-1.152.36-.072-.288c.072 0 .144-.144.216-.216 0-.144-.072-.288-.144-.504l-1.368-4.248-.792.288c-.216.072-.288.144-.36.36v.504l-.216.072-.288-1.08zM122.112 179.424c-.072.072-.144.144-.144.288s0 .288.072.432l.648 1.584 2.16-.864-.648-1.584c-.072-.144-.144-.288-.216-.36-.072-.072-.144-.144-.288-.072l-.144-.288 1.152-.432.072.288a.155.155 0 0 0-.144.144V178.992c.072.072.072.072.072.144l1.368 3.6c.072.144.144.288.216.36.144.144.216.144.36.072l.144.288-1.152.432-.072-.288c.072-.072.144-.144.144-.288 0-.072 0-.216-.072-.432l-.648-1.656-2.232.792.648 1.728c.072.216.144.288.288.432.072.072.144.072.288.072l.144.216-1.152.432-.072-.216c.072-.072.144-.144.144-.288s0-.288-.072-.432l-1.368-3.6c-.072-.216-.216-.36-.288-.432-.072-.072-.144-.144-.288-.072l-.144-.288 1.152-.432.072.288zM126.864 177.12l1.296-.576 1.008-.504 1.08-.576.504 1.008-.216.072v-.072l-.072-.072c-.072-.144-.216-.216-.36-.288-.144-.072-.288-.072-.432.072l-.72.288 1.944 4.032c.072.216.144.36.288.432.072.072.144.072.288.072l.144.216-1.08.504-.144-.216c.144-.072.216-.216.216-.288 0-.144-.072-.288-.144-.504l-1.944-3.96-.792.36c-.216.072-.288.216-.288.36 0 .216 0 .36.072.504l-.216.144-.432-1.008zM131.76 175.032c-.144.072-.144.144-.144.288s.072.288.144.432l.864 1.512 2.016-1.152-.792-1.512c-.144-.144-.216-.288-.288-.36-.144-.072-.216-.072-.36 0l-.144-.288 1.08-.576.072.288c-.072.072-.072.144-.144.216 0 .072.072.144.072.288 0 0 0 .072.072.072 0 .072 0 .144.072.144l1.872 3.384c.072.144.144.288.288.36a.219.219 0 0 0 .288 0l.144.288-1.008.576-.144-.288c.072-.072.144-.144.144-.288-.072-.144-.072-.288-.216-.432l-.864-1.584-2.016 1.152.864 1.584c.072.144.216.288.288.36.072.072.216.072.36.072l.072.216-1.008.576-.144-.216c.144-.072.144-.216.144-.36 0-.072-.072-.216-.144-.432l-1.872-3.312c-.072-.216-.216-.288-.288-.432-.072-.072-.216-.072-.36 0l-.144-.216 1.08-.576.144.216zM136.512 171.864s.072 0 .144-.072c0 0 .072-.072.144-.072 0-.072.072-.072.072-.072s0-.072.072-.072c0-.072.072-.072.072-.072l.072-.072.576.936-.144.072c-.216-.216-.36-.288-.576-.288-.144 0-.36.072-.576.216l-.864.576 1.224 1.944.576-.36c.072 0 .072-.072.072-.072h.072c.072-.072.072-.144.144-.216 0-.072 0-.216-.072-.36l.144-.072.648 1.008-.144.072c-.216-.144-.288-.216-.36-.216a.546.546 0 0 0-.288.144l-.648.36 1.296 2.016 1.008-.576c.216-.144.432-.36.576-.576.144-.216.072-.504-.072-.792l.144-.144.576 1.08-2.736 1.8-.216-.288c.144-.072.144-.144.144-.288s-.072-.288-.144-.432l-2.088-3.24c-.072-.216-.216-.288-.288-.36-.144-.072-.216-.072-.36-.072l-.144-.216 1.944-1.224zM142.704 169.704l-.72-.576h-.072c-.072-.072-.072-.072-.144-.072 0-.072-.072-.072-.072-.144-.072-.072-.072-.144-.072-.216l.216-.216.072-.072h.072c.072-.072.072-.072.144-.072 0 .072.072.072.144.144 0 0 0 .072.072.072v.144l.36 1.008zm1.152-3.096l-.792.648.144.216v-.072h.288c.072 0 .144.072.216.144v.072c.072.072.072.072.072.144v.072h.072v.144l1.368 3.528h-.072l-2.016-1.512-.504-1.224v-.072-.072c-.072-.144-.144-.288-.144-.432s.072-.216.144-.288l-.216-.216-1.8 1.368.216.216c.072-.072.144-.072.288-.072.072.072.216.144.288.216l1.656 1.224.72 1.872-3.096-2.232c-.072-.072-.144-.144-.216-.144 0-.072-.072-.072-.072-.144-.072-.072-.072-.144-.072-.216v-.144h.072v-.072l-.144-.216-1.008.792.144.216c.072-.072.216-.072.36-.072.072.072.216.144.288.216h.072l4.176 3.096.144-.144-1.008-2.52h.072l2.16 1.584.144-.072-1.728-4.752c-.144-.288-.216-.504-.144-.648 0-.072 0-.144.072-.144l-.144-.288zM145.656 165.384v-.072h.072c.288-.216.648-.216 1.152-.144.504.144 1.008.576 1.584 1.224.576.648.864 1.224.936 1.728.072.504 0 .864-.288 1.08v.072l-.072.072h-.072c-.288.216-.648.288-1.152.144-.504-.144-1.008-.504-1.584-1.152-.576-.648-.864-1.224-.936-1.728-.072-.504.072-.936.288-1.152v-.072h.072zm-.216-.288a1.975 1.975 0 0 0-.576 1.656c.144.72.432 1.368.936 1.944.504.576 1.08.936 1.8 1.152.648.216 1.224.072 1.656-.288.504-.432.648-.936.576-1.656-.072-.72-.432-1.368-.936-1.944a3.857 3.857 0 0 0-1.728-1.152c-.72-.216-1.296-.072-1.728.288zM149.904 164.88l-1.656-1.728.432-.432c0-.072.072-.072.144-.144s.144-.072.216-.144c.144-.072.288-.144.504-.072.216 0 .432.144.72.432s.36.504.432.72c0 .216 0 .36-.072.504 0 .144-.072.216-.144.288l-.144.144-.432.432zm-2.52-1.368l.216.216c.072-.072.144-.072.144-.072h.216s.072 0 .072.072h.072c0 .072.072.072.072.072 0 .072.072.072.072.072s0 .072.072.072l2.664 2.736c.072.144.216.288.216.36.072.144.072.216 0 .36l.144.216.864-.864-.144-.144c-.144.072-.288.072-.36 0-.144 0-.288-.144-.36-.288l-1.224-1.224.648-.648 2.664 1.152.576-.504-.216-.216c-.072.072-.144.072-.288.072-.072 0-.216 0-.288-.072h-.072c-.072 0-.072-.072-.144-.072l-1.944-.792.072-.072v-.072a.999.999 0 0 0 0-.648 1.811 1.811 0 0 0-.504-.864c-.36-.432-.72-.576-1.08-.504a2 2 0 0 0-1.08.576l-1.08 1.08zM151.272 160.056c-.072.072-.144.216-.072.288.072.144.144.288.288.432l3.24 3.024.864-.936a.818.818 0 0 0 .216-.576c-.072-.288-.216-.504-.36-.72l.144-.144.936.936-2.088 2.304-.216-.216c.072-.072.072-.216 0-.36 0-.072-.144-.216-.288-.36l-2.808-2.592c-.144-.144-.216-.216-.36-.288-.144-.072-.216 0-.36.072l-.144-.216.792-.864.216.216zM157.32 160.992l-3.888-3.312.504-.576c.072 0 .144-.072.216-.216.144-.072.36-.216.576-.288.216-.072.576 0 .936.072.432.072.864.36 1.368.792.576.432.864.864 1.008 1.224.144.432.216.72.144 1.008-.072.144-.072.288-.144.432a.994.994 0 0 1-.216.288l-.504.576zm-4.68-2.88l.216.216c.144-.144.216-.144.36-.144.144.072.216.144.432.288l2.88 2.448.36.36c0 .144 0 .288-.072.36l.216.216 1.08-1.368c.072-.072.216-.144.288-.36.072-.144.144-.36.216-.576.072-.36.072-.72-.072-1.152-.144-.432-.504-.864-1.08-1.368-.72-.576-1.296-.864-1.8-.936-.504 0-1.008.072-1.296.288-.144.072-.216.144-.36.216l-.216.216-1.152 1.296zM159.696 157.392c.072-.072.144-.072.216-.072.072 0 .144.072.216.144.144.072.216.144.216.288v.216c-.072.072-.144.072-.216.072h-.216l-.072-.072h-.072v-.072c-.072 0-.072-.072-.072-.072-.072-.072-.072-.144-.072-.216-.072-.072 0-.072 0-.144l.072-.072z"/></g></svg>